<svg width="228" height="62" viewBox="0 0 228 62" fill="none" xmlns="http://www.w3.org/2000/svg">
<rect y="12" width="228" height="50" rx="25" fill="#425EA6"/>
<path d="M45.4395 43.192C44.5542 43.192 43.7328 43.048 42.9755 42.76C42.2288 42.472 41.5782 42.0667 41.0235 41.544C40.4795 41.0213 40.0528 40.408 39.7435 39.704C39.4448 39 39.2955 38.232 39.2955 37.4C39.2955 36.568 39.4448 35.8 39.7435 35.096C40.0528 34.392 40.4848 33.7787 41.0395 33.256C41.5942 32.7333 42.2448 32.328 42.9915 32.04C43.7382 31.752 44.5488 31.608 45.4235 31.608C46.3088 31.608 47.1195 31.752 47.8555 32.04C48.6022 32.328 49.2475 32.7333 49.7915 33.256C50.3462 33.7787 50.7782 34.392 51.0875 35.096C51.3968 35.7893 51.5515 36.5573 51.5515 37.4C51.5515 38.232 51.3968 39.0053 51.0875 39.72C50.7782 40.424 50.3462 41.0373 49.7915 41.56C49.2475 42.072 48.6022 42.472 47.8555 42.76C47.1195 43.048 46.3142 43.192 45.4395 43.192ZM45.4235 40.984C45.9248 40.984 46.3835 40.8987 46.7995 40.728C47.2262 40.5573 47.5995 40.312 47.9195 39.992C48.2395 39.672 48.4848 39.2933 48.6555 38.856C48.8368 38.4187 48.9275 37.9333 48.9275 37.4C48.9275 36.8667 48.8368 36.3813 48.6555 35.944C48.4848 35.5067 48.2395 35.128 47.9195 34.808C47.6102 34.488 47.2422 34.2427 46.8155 34.072C46.3888 33.9013 45.9248 33.816 45.4235 33.816C44.9222 33.816 44.4582 33.9013 44.0315 34.072C43.6155 34.2427 43.2475 34.488 42.9275 34.808C42.6075 35.128 42.3568 35.5067 42.1755 35.944C42.0048 36.3813 41.9195 36.8667 41.9195 37.4C41.9195 37.9227 42.0048 38.408 42.1755 38.856C42.3568 39.2933 42.6022 39.672 42.9115 39.992C43.2315 40.312 43.6048 40.5573 44.0315 40.728C44.4582 40.8987 44.9222 40.984 45.4235 40.984ZM55.1025 43V35.864L55.6625 36.44H52.1905V34.392H60.4945V36.44H57.0225L57.5825 35.864V43H55.1025ZM61.825 43V34.392H64.433L67.681 40.28H66.641L70.113 34.392H72.449L72.481 43H70.225V36.952L70.609 37.208L67.649 42.168H66.593L63.617 37.032L64.081 36.92V43H61.825ZM79.0799 43.128C78.0985 43.128 77.2345 42.936 76.4879 42.552C75.7519 42.168 75.1812 41.6453 74.7759 40.984C74.3705 40.312 74.1679 39.5493 74.1679 38.696C74.1679 37.832 74.3652 37.0693 74.7599 36.408C75.1652 35.736 75.7145 35.2133 76.4079 34.84C77.1012 34.456 77.8852 34.264 78.7599 34.264C79.6025 34.264 80.3599 34.4453 81.0319 34.808C81.7145 35.16 82.2532 35.672 82.6479 36.344C83.0425 37.0053 83.2399 37.8 83.2399 38.728C83.2399 38.824 83.2345 38.936 83.2239 39.064C83.2132 39.1813 83.2025 39.2933 83.1919 39.4H76.1999V37.944H81.8799L80.9199 38.376C80.9199 37.928 80.8292 37.5387 80.6479 37.208C80.4665 36.8773 80.2159 36.6213 79.8959 36.44C79.5759 36.248 79.2025 36.152 78.7759 36.152C78.3492 36.152 77.9705 36.248 77.6399 36.44C77.3199 36.6213 77.0692 36.8827 76.8879 37.224C76.7065 37.5547 76.6159 37.9493 76.6159 38.408V38.792C76.6159 39.2613 76.7172 39.6773 76.9199 40.04C77.1332 40.392 77.4265 40.664 77.7999 40.856C78.1839 41.0373 78.6319 41.128 79.1439 41.128C79.6025 41.128 80.0025 41.0587 80.3439 40.92C80.6959 40.7813 81.0159 40.5733 81.3039 40.296L82.6319 41.736C82.2372 42.184 81.7412 42.5307 81.1439 42.776C80.5465 43.0107 79.8585 43.128 79.0799 43.128ZM85.1531 43V34.392H87.6331V37.752H91.3771V34.392H93.8731V43H91.3771V39.784H87.6331V43H85.1531ZM96.2625 43V34.392H98.7425V39.512L102.935 34.392H105.223V43H102.743V37.88L98.5665 43H96.2625ZM109.462 43V35.864L110.022 36.44H106.55V34.392H114.854V36.44H111.382L111.942 35.864V43H109.462ZM120.84 37.144C121.971 37.1547 122.83 37.4107 123.416 37.912C124.014 38.4027 124.312 39.1013 124.312 40.008C124.312 40.9573 123.976 41.6987 123.304 42.232C122.632 42.7547 121.699 43.016 120.504 43.016L116.184 43V34.392H118.664V37.144H120.84ZM120.28 41.24C120.76 41.2507 121.128 41.1493 121.384 40.936C121.64 40.7227 121.768 40.4027 121.768 39.976C121.768 39.5493 121.64 39.2453 121.384 39.064C121.128 38.872 120.76 38.7707 120.28 38.76L118.664 38.744V41.24H120.28ZM133.315 43.16C132.654 43.16 131.992 43.0907 131.331 42.952C130.68 42.8133 130.078 42.6053 129.523 42.328L130.195 40.584C130.632 40.7973 131.107 40.9627 131.619 41.08C132.142 41.1867 132.67 41.24 133.203 41.24C133.587 41.24 133.918 41.2027 134.195 41.128C134.483 41.0427 134.702 40.9253 134.851 40.776C135 40.6267 135.075 40.4453 135.075 40.232C135.075 39.9547 134.958 39.7467 134.723 39.608C134.488 39.4587 134.147 39.384 133.699 39.384H131.939V37.832H133.491C133.779 37.832 134.024 37.8 134.227 37.736C134.43 37.672 134.579 37.5813 134.675 37.464C134.782 37.336 134.835 37.1867 134.835 37.016C134.835 36.8347 134.771 36.68 134.643 36.552C134.515 36.424 134.328 36.328 134.083 36.264C133.838 36.1893 133.528 36.152 133.155 36.152C132.728 36.152 132.286 36.2053 131.827 36.312C131.368 36.408 130.899 36.552 130.419 36.744L129.811 35.016C130.376 34.7813 130.936 34.5947 131.491 34.456C132.046 34.3173 132.595 34.2427 133.139 34.232C133.939 34.2107 134.659 34.296 135.299 34.488C135.939 34.68 136.44 34.9573 136.803 35.32C137.176 35.6827 137.363 36.1253 137.363 36.648C137.363 37.064 137.235 37.4373 136.979 37.768C136.734 38.0987 136.392 38.36 135.955 38.552C135.518 38.7333 135.027 38.824 134.483 38.824L134.547 38.328C135.496 38.328 136.243 38.52 136.787 38.904C137.331 39.2773 137.603 39.7893 137.603 40.44C137.603 40.9947 137.411 41.48 137.027 41.896C136.654 42.3013 136.142 42.616 135.491 42.84C134.851 43.0533 134.126 43.16 133.315 43.16ZM144.54 43V41.32L144.38 40.952V37.944C144.38 37.4107 144.214 36.9947 143.884 36.696C143.564 36.3973 143.068 36.248 142.396 36.248C141.937 36.248 141.484 36.3227 141.036 36.472C140.598 36.6107 140.225 36.8027 139.916 37.048L139.02 35.304C139.489 34.9733 140.054 34.7173 140.716 34.536C141.377 34.3547 142.049 34.264 142.732 34.264C144.044 34.264 145.062 34.5733 145.788 35.192C146.513 35.8107 146.876 36.776 146.876 38.088V43H144.54ZM141.916 43.128C141.244 43.128 140.668 43.016 140.188 42.792C139.708 42.5573 139.34 42.2427 139.084 41.848C138.828 41.4533 138.7 41.0107 138.7 40.52C138.7 40.008 138.822 39.56 139.068 39.176C139.324 38.792 139.724 38.4933 140.268 38.28C140.812 38.056 141.521 37.944 142.396 37.944H144.684V39.4H142.668C142.081 39.4 141.676 39.496 141.452 39.688C141.238 39.88 141.132 40.12 141.132 40.408C141.132 40.728 141.254 40.984 141.5 41.176C141.756 41.3573 142.102 41.448 142.54 41.448C142.956 41.448 143.329 41.352 143.66 41.16C143.99 40.9573 144.23 40.664 144.38 40.28L144.764 41.432C144.582 41.9867 144.252 42.408 143.772 42.696C143.292 42.984 142.673 43.128 141.916 43.128ZM149.044 43V34.392H157.604V43H155.108V35.88L155.668 36.44H150.964L151.524 35.88V43H149.044ZM159.997 43V34.392H162.477V39.512L166.669 34.392H168.957V43H166.477V37.88L162.301 43H159.997ZM175.452 43.128C174.524 43.128 173.698 42.9413 172.972 42.568C172.247 42.184 171.676 41.656 171.26 40.984C170.855 40.312 170.652 39.5493 170.652 38.696C170.652 37.832 170.855 37.0693 171.26 36.408C171.676 35.736 172.247 35.2133 172.972 34.84C173.698 34.456 174.524 34.264 175.452 34.264C176.359 34.264 177.148 34.456 177.82 34.84C178.492 35.2133 178.988 35.752 179.308 36.456L177.372 37.496C177.148 37.0907 176.866 36.792 176.524 36.6C176.194 36.408 175.831 36.312 175.436 36.312C175.01 36.312 174.626 36.408 174.284 36.6C173.943 36.792 173.671 37.064 173.468 37.416C173.276 37.768 173.18 38.1947 173.18 38.696C173.18 39.1973 173.276 39.624 173.468 39.976C173.671 40.328 173.943 40.6 174.284 40.792C174.626 40.984 175.01 41.08 175.436 41.08C175.831 41.08 176.194 40.9893 176.524 40.808C176.866 40.616 177.148 40.312 177.372 39.896L179.308 40.952C178.988 41.6453 178.492 42.184 177.82 42.568C177.148 42.9413 176.359 43.128 175.452 43.128ZM185.481 37.144C186.612 37.1547 187.47 37.4107 188.057 37.912C188.654 38.4027 188.953 39.1013 188.953 40.008C188.953 40.9573 188.617 41.6987 187.945 42.232C187.273 42.7547 186.34 43.016 185.145 43.016L180.825 43V34.392H183.305V37.144H185.481ZM184.921 41.24C185.401 41.2507 185.769 41.1493 186.025 40.936C186.281 40.7227 186.409 40.4027 186.409 39.976C186.409 39.5493 186.281 39.2453 186.025 39.064C185.769 38.872 185.401 38.7707 184.921 38.76L183.305 38.744V41.24H184.921Z" fill="white"/>
</svg>
