<svg width="41" height="39" viewBox="0 0 41 39" fill="none" xmlns="http://www.w3.org/2000/svg">
<g clip-path="url(#clip0_318_2)">
<path d="M21.5 0H19.5C8.73045 0 0 8.73045 0 19.5C0 30.2696 8.73045 39 19.5 39H21.5C32.2696 39 41 30.2696 41 19.5C41 8.73045 32.2696 0 21.5 0Z" fill="#C9D7EA"/>
<path d="M11.7941 17.08L10.9541 15.66L14.7541 13H16.0941V27H14.2341V15.24L11.7941 17.08ZM24.4132 25.6C26.1732 25.6 27.2532 24.24 27.2532 22.2C27.2532 20.2 26.1332 19.06 24.4732 19.06C23.1732 19.06 22.0132 19.74 21.5132 21.26L20.0532 20.76L20.8532 13H28.3132V14.68H22.2132L21.7532 19.06C22.5132 17.96 23.7132 17.48 24.9332 17.48C27.5532 17.48 29.2332 19.3 29.2332 22.2C29.2332 25.2 27.3332 27.18 24.3732 27.18C22.4132 27.2 20.5532 26.38 19.6932 24.08L21.4932 23.3C22.1532 25.18 23.1932 25.6 24.4132 25.6Z" fill="white"/>
</g>
<defs>
<clipPath id="clip0_318_2">
<rect width="41" height="39" fill="white"/>
</clipPath>
</defs>
</svg>
