<svg width="41" height="39" viewBox="0 0 41 39" fill="none" xmlns="http://www.w3.org/2000/svg">
<g clip-path="url(#clip0_318_5)">
<path d="M21.5 0H19.5C8.73045 0 0 8.73045 0 19.5C0 30.2696 8.73045 39 19.5 39H21.5C32.2696 39 41 30.2696 41 19.5C41 8.73045 32.2696 0 21.5 0Z" fill="#C9D7EA"/>
<path d="M11.716 17.0799L10.876 15.6599L14.676 12.9999H16.016V26.9999H14.156V15.2399L11.716 17.0799ZM24.435 27.1799C21.335 27.1799 19.415 24.8199 19.415 19.9799C19.415 15.5599 21.395 12.8199 24.475 12.8199C26.355 12.8199 27.835 13.8399 28.675 15.6399L27.015 16.3999C26.475 14.9599 25.575 14.3999 24.475 14.3999C22.655 14.3999 21.395 15.9399 21.395 19.9799V20.0799V20.0999C22.055 18.6999 23.375 17.9199 24.975 17.9199C27.215 17.9199 29.115 19.5399 29.115 22.4999C29.115 25.2999 27.055 27.1999 24.435 27.1799ZM24.455 25.5999C26.035 25.5999 27.115 24.4999 27.115 22.5399C27.115 20.5599 26.035 19.4999 24.475 19.4999C22.835 19.4999 21.675 20.6799 21.735 22.5199C21.775 24.0599 22.635 25.5999 24.455 25.5999Z" fill="white"/>
</g>
<defs>
<clipPath id="clip0_318_5">
<rect width="41" height="39" fill="white"/>
</clipPath>
</defs>
</svg>
