<svg width="41" height="39" viewBox="0 0 41 39" fill="none" xmlns="http://www.w3.org/2000/svg">
<g clip-path="url(#clip0_318_8)">
<path d="M21.5 0H19.5C8.73045 0 0 8.73045 0 19.5C0 30.2696 8.73045 39 19.5 39H21.5C32.2696 39 41 30.2696 41 19.5C41 8.73045 32.2696 0 21.5 0Z" fill="#C9D7EA"/>
<path d="M9.95043 27.0001V25.6401L14.3504 21.3601C16.1304 19.6401 16.9104 18.3401 16.9104 16.9001C16.9104 15.3601 15.9904 14.4001 14.4304 14.4001C13.0304 14.4001 11.9304 15.2401 11.5504 17.3601L9.69043 16.8001C10.2904 14.2401 12.0504 12.8201 14.4904 12.8201C17.4304 12.8201 18.9304 14.6401 18.9304 16.8601C18.9304 18.8001 17.7504 20.2601 15.5904 22.3601L12.5304 25.3201H19.4504V27.0001H9.95043ZM26.7761 25.6001C28.5361 25.6001 29.6161 24.2401 29.6161 22.2001C29.6161 20.2001 28.4961 19.0601 26.8361 19.0601C25.5361 19.0601 24.3761 19.7401 23.8761 21.2601L22.4161 20.7601L23.2161 13.0001H30.6761V14.6801H24.5761L24.1161 19.0601C24.8761 17.9601 26.0761 17.4801 27.2961 17.4801C29.9161 17.4801 31.5961 19.3001 31.5961 22.2001C31.5961 25.2001 29.6961 27.1801 26.7361 27.1801C24.7761 27.2001 22.9161 26.3801 22.0561 24.0801L23.8561 23.3001C24.5161 25.1801 25.5561 25.6001 26.7761 25.6001Z" fill="white"/>
</g>
<defs>
<clipPath id="clip0_318_8">
<rect width="41" height="39" fill="white"/>
</clipPath>
</defs>
</svg>
