<svg width="41" height="39" viewBox="0 0 41 39" fill="none" xmlns="http://www.w3.org/2000/svg">
<g clip-path="url(#clip0_318_20)">
<path d="M21.5 0H19.5C8.73045 0 0 8.73045 0 19.5C0 30.2696 8.73045 39 19.5 39H21.5C32.2696 39 41 30.2696 41 19.5C41 8.73045 32.2696 0 21.5 0Z" fill="#C9D7EA"/>
<path d="M20.7552 27.1799C18.1552 27.1799 16.3352 26.0599 15.5352 23.3999L17.3752 22.7399C17.9752 24.9999 19.2352 25.5999 20.6352 25.5999C22.4752 25.5999 23.5352 24.7999 23.5352 23.0799C23.5352 21.4999 22.5352 20.7199 21.0352 20.7199H19.2152V19.1399H20.9752C22.1952 19.1399 23.1952 18.2799 23.1952 16.8599C23.1952 15.1599 22.0952 14.3999 20.5952 14.3999C19.2552 14.3999 17.9952 14.9999 17.4152 17.2599L15.5752 16.5999C16.3752 13.9399 18.2752 12.8199 20.7752 12.8199C23.3152 12.8199 25.2152 14.2999 25.2152 16.6199C25.2152 18.2399 24.1352 19.4799 22.5552 19.8399C24.3352 20.0999 25.5552 21.3399 25.5552 23.1799C25.5552 25.6599 23.6952 27.1799 20.7552 27.1799Z" fill="white"/>
</g>
<defs>
<clipPath id="clip0_318_20">
<rect width="41" height="39" fill="white"/>
</clipPath>
</defs>
</svg>
