<svg width="41" height="39" viewBox="0 0 41 39" fill="none" xmlns="http://www.w3.org/2000/svg">
<g clip-path="url(#clip0_318_11)">
<path d="M21.5 0H19.5C8.73045 0 0 8.73045 0 19.5C0 30.2696 8.73045 39 19.5 39H21.5C32.2696 39 41 30.2696 41 19.5C41 8.73045 32.2696 0 21.5 0Z" fill="#C9D7EA"/>
<path d="M14.3782 27.1801C11.7782 27.1801 9.9582 26.0601 9.1582 23.4001L10.9982 22.7401C11.5982 25.0001 12.8582 25.6001 14.2582 25.6001C16.0982 25.6001 17.1582 24.8001 17.1582 23.0801C17.1582 21.5001 16.1582 20.7201 14.6582 20.7201H12.8382V19.1401H14.5982C15.8182 19.1401 16.8182 18.2801 16.8182 16.8601C16.8182 15.1601 15.7182 14.4001 14.2182 14.4001C12.8782 14.4001 11.6182 15.0001 11.0382 17.2601L9.1982 16.6001C9.9982 13.9401 11.8982 12.8201 14.3982 12.8201C16.9382 12.8201 18.8382 14.3001 18.8382 16.6201C18.8382 18.2401 17.7582 19.4801 16.1782 19.8401C17.9582 20.1001 19.1782 21.3401 19.1782 23.1801C19.1782 25.6601 17.3182 27.1801 14.3782 27.1801ZM29.7671 19.9801C29.7671 15.8201 28.3671 14.4001 26.5671 14.4001C24.7471 14.4001 23.3671 15.8201 23.3671 19.9801C23.3671 24.2401 24.7471 25.6001 26.5671 25.6001C28.3671 25.6001 29.7671 24.2401 29.7671 19.9801ZM26.5671 27.1801C23.4871 27.1801 21.3871 24.7601 21.3871 19.9801C21.3871 15.3001 23.4871 12.8201 26.5671 12.8201C29.6471 12.8201 31.7471 15.3001 31.7471 19.9801C31.7471 24.7601 29.6471 27.1801 26.5671 27.1801Z" fill="white"/>
</g>
<defs>
<clipPath id="clip0_318_11">
<rect width="41" height="39" fill="white"/>
</clipPath>
</defs>
</svg>
