<svg width="41" height="39" viewBox="0 0 41 39" fill="none" xmlns="http://www.w3.org/2000/svg">
<g clip-path="url(#clip0_318_14)">
<path d="M21.5 0H19.5C8.73045 0 0 8.73045 0 19.5C0 30.2696 8.73045 39 19.5 39H21.5C32.2696 39 41 30.2696 41 19.5C41 8.73045 32.2696 0 21.5 0Z" fill="#C9D7EA"/>
<path d="M16.9856 27.1801C14.3856 27.1801 12.5656 26.0601 11.7656 23.4001L13.6056 22.7401C14.2056 25.0001 15.4656 25.6001 16.8656 25.6001C18.7056 25.6001 19.7656 24.8001 19.7656 23.0801C19.7656 21.5001 18.7656 20.7201 17.2656 20.7201H15.4456V19.1401H17.2056C18.4256 19.1401 19.4256 18.2801 19.4256 16.8601C19.4256 15.1601 18.3256 14.4001 16.8256 14.4001C15.4856 14.4001 14.2256 15.0001 13.6456 17.2601L11.8056 16.6001C12.6056 13.9401 14.5056 12.8201 17.0056 12.8201C19.5456 12.8201 21.4456 14.3001 21.4456 16.6201C21.4456 18.2401 20.3656 19.4801 18.7856 19.8401C20.5656 20.1001 21.7856 21.3401 21.7856 23.1801C21.7856 25.6601 19.9256 27.1801 16.9856 27.1801ZM23.8345 17.0801L22.9945 15.6601L26.7945 13.0001H28.1345V27.0001H26.2745V15.2401L23.8345 17.0801Z" fill="white"/>
</g>
<defs>
<clipPath id="clip0_318_14">
<rect width="41" height="39" fill="white"/>
</clipPath>
</defs>
</svg>
