<svg width="125" height="39" viewBox="0 0 125 39" fill="none" xmlns="http://www.w3.org/2000/svg">
<g clip-path="url(#clip0_318_26)">
<path d="M105.5 0H19.5C8.73045 0 0 8.73045 0 19.5C0 30.2696 8.73045 39 19.5 39H105.5C116.27 39 125 30.2696 125 19.5C125 8.73045 116.27 0 105.5 0Z" fill="#C9D7EA"/>
<path d="M39.2648 17.0799L38.4248 15.6599L42.2248 12.9999H43.5648V26.9999H41.7048V15.2399L39.2648 17.0799ZM46.7639 23.2799V21.7999L53.2039 12.9999H55.4039V21.5999H57.1639V23.2799H55.4039V26.9999H53.5439V23.2799H46.7639ZM48.7439 21.5999H53.5439V14.9799L48.7439 21.5999ZM59.4686 26.9999V24.8199H61.4886V26.9999H59.4686ZM59.4686 19.0799V16.8999H61.4886V19.0799H59.4686ZM69.2128 27.1799C66.6128 27.1799 64.7928 26.0599 63.9928 23.3999L65.8328 22.7399C66.4328 24.9999 67.6928 25.5999 69.0928 25.5999C70.9328 25.5999 71.9928 24.7999 71.9928 23.0799C71.9928 21.4999 70.9928 20.7199 69.4928 20.7199H67.6728V19.1399H69.4328C70.6528 19.1399 71.6528 18.2799 71.6528 16.8599C71.6528 15.1599 70.5528 14.3999 69.0528 14.3999C67.7128 14.3999 66.4528 14.9999 65.8728 17.2599L64.0328 16.5999C64.8328 13.9399 66.7328 12.8199 69.2328 12.8199C71.7728 12.8199 73.6728 14.2999 73.6728 16.6199C73.6728 18.2399 72.5928 19.4799 71.0128 19.8399C72.7928 20.0999 74.0128 21.3399 74.0128 23.1799C74.0128 25.6599 72.1528 27.1799 69.2128 27.1799ZM84.6017 19.9799C84.6017 15.8199 83.2017 14.3999 81.4017 14.3999C79.5817 14.3999 78.2017 15.8199 78.2017 19.9799C78.2017 24.2399 79.5817 25.5999 81.4017 25.5999C83.2017 25.5999 84.6017 24.2399 84.6017 19.9799ZM81.4017 27.1799C78.3217 27.1799 76.2217 24.7599 76.2217 19.9799C76.2217 15.2999 78.3217 12.8199 81.4017 12.8199C84.4817 12.8199 86.5817 15.2999 86.5817 19.9799C86.5817 24.7599 84.4817 27.1799 81.4017 27.1799Z" fill="white"/>
</g>
<defs>
<clipPath id="clip0_318_26">
<rect width="125" height="39" fill="white"/>
</clipPath>
</defs>
</svg>
