<svg width="125" height="39" viewBox="0 0 125 39" fill="none" xmlns="http://www.w3.org/2000/svg">
<g clip-path="url(#clip0_318_23)">
<path d="M105.5 0H19.5C8.73045 0 0 8.73045 0 19.5C0 30.2696 8.73045 39 19.5 39H105.5C116.27 39 125 30.2696 125 19.5C125 8.73045 116.27 0 105.5 0Z" fill="#C9D7EA"/>
<path d="M38.7277 17.0799L37.8877 15.6599L41.6877 12.9999H43.0277V26.9999H41.1677V15.2399L38.7277 17.0799ZM54.8068 19.9799C54.8068 15.8199 53.4068 14.3999 51.6068 14.3999C49.7868 14.3999 48.4068 15.8199 48.4068 19.9799C48.4068 24.2399 49.7868 25.5999 51.6068 25.5999C53.4068 25.5999 54.8068 24.2399 54.8068 19.9799ZM51.6068 27.1799C48.5268 27.1799 46.4268 24.7599 46.4268 19.9799C46.4268 15.2999 48.5268 12.8199 51.6068 12.8199C54.6868 12.8199 56.7868 15.2999 56.7868 19.9799C56.7868 24.7599 54.6868 27.1799 51.6068 27.1799ZM59.3807 26.9999V24.8199H61.4007V26.9999H59.3807ZM59.3807 19.0799V16.8999H61.4007V19.0799H59.3807ZM72.3849 19.9799C72.3849 15.8199 70.9849 14.3999 69.1849 14.3999C67.3649 14.3999 65.9849 15.8199 65.9849 19.9799C65.9849 24.2399 67.3649 25.5999 69.1849 25.5999C70.9849 25.5999 72.3849 24.2399 72.3849 19.9799ZM69.1849 27.1799C66.1049 27.1799 64.0049 24.7599 64.0049 19.9799C64.0049 15.2999 66.1049 12.8199 69.1849 12.8199C72.2649 12.8199 74.3649 15.2999 74.3649 19.9799C74.3649 24.7599 72.2649 27.1799 69.1849 27.1799ZM85.1388 19.9799C85.1388 15.8199 83.7388 14.3999 81.9388 14.3999C80.1188 14.3999 78.7388 15.8199 78.7388 19.9799C78.7388 24.2399 80.1188 25.5999 81.9388 25.5999C83.7388 25.5999 85.1388 24.2399 85.1388 19.9799ZM81.9388 27.1799C78.8588 27.1799 76.7588 24.7599 76.7588 19.9799C76.7588 15.2999 78.8588 12.8199 81.9388 12.8199C85.0188 12.8199 87.1188 15.2999 87.1188 19.9799C87.1188 24.7599 85.0188 27.1799 81.9388 27.1799Z" fill="white"/>
</g>
<defs>
<clipPath id="clip0_318_23">
<rect width="125" height="39" fill="white"/>
</clipPath>
</defs>
</svg>
