<svg width="140" height="181" viewBox="0 0 140 181" fill="none" xmlns="http://www.w3.org/2000/svg">
<path d="M10.5754 124.658C9.01908 124.29 7.92242 122.751 8.22519 121.088C12.3173 114.25 9.43581 119.576 11.8936 114.88L12.3169 114.25C17.1005 107.165 23.4109 99.8018 29.2956 94.621C38.273 86.7941 49.3092 83.3818 60.0246 80.1674C64.5552 78.7752 68.8719 77.5149 73.0111 75.8473C88.6053 69.7708 100.691 62.3151 111.259 52.3994C111.855 51.8101 112.558 51.1549 113.241 50.5861C119.697 44.5361 127.539 37.2621 131.001 29.5895C130.885 28.9228 131.069 28.1446 131.406 27.4938C131.574 27.1684 131.809 26.95 131.956 26.7111C131.977 26.6246 132.084 26.5587 132.104 26.4722C132.125 26.3857 132.125 26.3857 132.145 26.2993C132.535 24.6564 134.225 23.6872 135.782 24.0559C137.425 24.4452 138.435 25.963 138.132 27.6263C138.05 27.9722 137.968 28.3181 137.907 28.5774C134.823 38.8964 125.213 47.8519 117.371 55.1259C116.668 55.7812 116.071 56.3705 115.389 56.9393C104.245 67.3578 91.5174 75.2094 75.195 81.6613C70.7759 83.3539 66.1384 84.8121 61.7148 86.1384C51.1928 89.3073 41.2511 92.3397 33.2978 99.3133C27.7749 104.123 21.8468 111.029 17.3386 117.723L16.9153 118.353C13.4345 123.575 17.2268 117.889 13.8788 122.686C12.9112 124.073 12.3047 125.068 10.6414 124.765C10.6619 124.679 10.6619 124.679 10.5754 124.658Z" fill="white"/>
<path d="M65.434 109.758C64.2235 109.471 63.2633 108.513 63.1178 107.2C62.8812 105.501 63.9827 103.935 65.703 103.612C92.5082 99.5526 116.091 80.5748 125.822 55.302C126.364 53.7866 128.014 52.9903 129.636 53.466C131.172 53.9212 132.162 55.5255 131.793 57.0819L131.224 59.8693C131.019 60.7339 130.575 61.4507 129.847 61.8261C118.411 86.969 94.005 105.569 66.6195 109.765C66.2327 109.856 65.7798 109.84 65.434 109.758Z" fill="white"/>
<path d="M54.3272 128.495C53.1166 128.209 52.1565 127.251 51.9245 125.917C51.688 124.217 52.8759 122.672 54.5757 122.436C61.5887 121.358 68.6178 119.827 75.4898 117.802C91.1226 113.105 101.213 106.363 106.188 97.3143C105.844 95.6805 106.707 93.9671 108.316 93.3438C109.838 92.6999 111.633 93.2166 112.491 94.607C113.679 96.5321 112.709 98.3114 112.393 98.8757L112.352 99.0487C106.758 110.325 95.3477 118.398 77.3529 123.814C70.267 125.971 62.9376 127.613 55.5582 128.696C55.1258 128.593 54.7595 128.598 54.3272 128.495Z" fill="white"/>
<path d="M50.6076 144.965C49.2242 144.637 48.173 143.292 48.2414 141.847C48.2847 140.123 49.7776 138.833 51.5023 138.876C59.6325 139.25 68.0426 139.599 75.9318 137.906C84.3147 136.057 91.2006 131.661 94.7508 125.927C95.6384 124.494 97.5725 124.039 99.006 124.927C100.44 125.814 100.895 127.748 100.007 129.182C95.4622 136.415 87.4658 141.644 77.2556 143.882C68.5723 145.843 59.7299 145.391 51.2333 145.022C50.9535 145.047 50.7805 145.006 50.6076 144.965Z" fill="white"/>
<path d="M30.8754 163.119C29.4055 162.771 28.0425 162.357 26.634 161.749C24.1425 160.702 21.7989 159.416 19.5417 158.151C17.371 156.906 15.2868 155.682 13.1001 154.89C11.5187 154.241 10.7634 152.418 11.3256 150.817C11.9742 149.235 13.7969 148.48 15.3988 149.042C17.9768 150.109 20.3204 151.395 22.6436 152.768C24.8143 154.012 26.8325 155.13 28.9987 156.008C36.9261 159.165 46.3512 157.928 53.1416 152.779C54.4865 151.728 56.4297 152.006 57.4809 153.351C58.532 154.695 58.2543 156.639 56.9094 157.69C49.5637 163.255 39.7814 165.229 30.8754 163.119Z" fill="white"/>
</svg>
