<svg width="314" height="61" viewBox="0 0 314 61" fill="none" xmlns="http://www.w3.org/2000/svg">
<path d="M66.8931 50.5331L60.4537 40.5787L64.3233 38.2451L72.3282 50.5331H66.8931ZM53.4531 50.5331V29.8562H58.2088V50.5331H53.4531ZM56.8205 42.2033V38.2156H64.0279V42.2033H56.8205ZM64.7664 40.7264L60.3651 40.1947L67.0704 29.8562H72.1214L64.7664 40.7264ZM83.9541 50.7694C82.615 50.7694 81.4434 50.474 80.439 49.8833C79.4347 49.2925 78.6471 48.3964 78.076 47.1953C77.5247 45.9743 77.2489 44.4383 77.2489 42.5873C77.2489 40.7164 77.5147 39.1804 78.0464 37.9793C78.5781 36.7781 79.3461 35.882 80.3504 35.2913C81.3547 34.7005 82.5559 34.4051 83.9541 34.4051C85.4507 34.4051 86.7898 34.7497 87.9714 35.439C89.1725 36.1084 90.1177 37.0537 90.807 38.2747C91.516 39.4957 91.8704 40.9331 91.8704 42.5873C91.8704 44.261 91.516 45.7084 90.807 46.9294C90.1177 48.1504 89.1725 49.0957 87.9714 49.7651C86.7898 50.4346 85.4507 50.7694 83.9541 50.7694ZM74.5609 56.2636V34.6414H78.9621V37.8907L78.8735 42.6168L79.1689 47.3134V56.2636H74.5609ZM83.1566 46.9885C83.9246 46.9885 84.604 46.8113 85.1947 46.4568C85.8051 46.1024 86.2877 45.6002 86.6421 44.9504C87.0162 44.2809 87.2034 43.493 87.2034 42.5873C87.2034 41.6617 87.0162 40.874 86.6421 40.2242C86.2877 39.5744 85.8051 39.0722 85.1947 38.7177C84.604 38.3633 83.9246 38.186 83.1566 38.186C82.3886 38.186 81.6993 38.3633 81.0889 38.7177C80.4785 39.0722 79.996 39.5744 79.6415 40.2242C79.287 40.874 79.1098 41.6617 79.1098 42.5873C79.1098 43.493 79.287 44.2809 79.6415 44.9504C79.996 45.6002 80.4785 46.1024 81.0889 46.4568C81.6993 46.8113 82.3886 46.9885 83.1566 46.9885ZM111.464 50.5331V34.6414H116.043V50.5331H111.464ZM103.459 39.722C105.547 39.7417 107.112 40.2143 108.156 41.1399C109.219 42.0457 109.751 43.3357 109.751 45.0094C109.751 46.7621 109.15 48.1306 107.949 49.1153C106.748 50.0801 105.045 50.5627 102.839 50.5627L95.1 50.5331V34.6414H99.6785V39.722H103.459ZM102.426 47.2839C103.312 47.3035 103.991 47.1166 104.464 46.7227C104.936 46.3287 105.173 45.738 105.173 44.9504C105.173 44.1627 104.936 43.6015 104.464 43.2667C103.991 42.9122 103.312 42.725 102.426 42.7054L99.6785 42.6759V47.2839H102.426ZM118.476 50.5036L118.712 46.7227C118.831 46.7423 118.949 46.7621 119.067 46.7817C119.185 46.7817 119.293 46.7817 119.392 46.7817C119.943 46.7817 120.376 46.6241 120.691 46.3091C121.006 45.9941 121.243 45.5707 121.4 45.039C121.558 44.4877 121.666 43.8674 121.725 43.1781C121.804 42.4887 121.863 41.7701 121.903 41.0217L122.139 34.6414H135.727V50.5331H131.119V37.2999L132.152 38.4224H125.181L126.156 37.2408L125.949 41.2285C125.89 42.6464 125.772 43.946 125.595 45.1276C125.437 46.3091 125.171 47.333 124.797 48.1996C124.423 49.0463 123.921 49.706 123.291 50.1787C122.661 50.6317 121.853 50.858 120.869 50.858C120.514 50.858 120.14 50.8285 119.746 50.7694C119.352 50.7104 118.929 50.6217 118.476 50.5036ZM147.601 50.7694C145.908 50.7694 144.401 50.415 143.082 49.706C141.782 48.9971 140.749 48.0323 139.981 46.8113C139.232 45.5707 138.858 44.1627 138.858 42.5873C138.858 40.9922 139.232 39.5843 139.981 38.3633C140.749 37.1227 141.782 36.1578 143.082 35.4685C144.401 34.7596 145.908 34.4051 147.601 34.4051C149.275 34.4051 150.772 34.7596 152.091 35.4685C153.411 36.1578 154.444 37.1127 155.193 38.3337C155.941 39.5547 156.315 40.9726 156.315 42.5873C156.315 44.1627 155.941 45.5707 155.193 46.8113C154.444 48.0323 153.411 48.9971 152.091 49.706C150.772 50.415 149.275 50.7694 147.601 50.7694ZM147.601 46.9885C148.369 46.9885 149.059 46.8113 149.669 46.4568C150.28 46.1024 150.762 45.6002 151.117 44.9504C151.471 44.2809 151.648 43.493 151.648 42.5873C151.648 41.6617 151.471 40.874 151.117 40.2242C150.762 39.5744 150.28 39.0722 149.669 38.7177C149.059 38.3633 148.369 38.186 147.601 38.186C146.833 38.186 146.144 38.3633 145.534 38.7177C144.923 39.0722 144.431 39.5744 144.057 40.2242C143.702 40.874 143.525 41.6617 143.525 42.5873C143.525 43.493 143.702 44.2809 144.057 44.9504C144.431 45.6002 144.923 46.1024 145.534 46.4568C146.144 46.8113 146.833 46.9885 147.601 46.9885ZM173.226 50.8285C172.005 50.8285 170.784 50.7004 169.563 50.4445C168.362 50.1886 167.249 49.8046 166.225 49.2925L167.466 46.0728C168.274 46.4667 169.15 46.7718 170.095 46.9885C171.06 47.1854 172.035 47.2839 173.019 47.2839C173.728 47.2839 174.339 47.2149 174.851 47.0771C175.382 46.9195 175.786 46.7031 176.062 46.4273C176.338 46.1515 176.475 45.8169 176.475 45.423C176.475 44.9109 176.259 44.5269 175.825 44.271C175.392 43.9952 174.762 43.8574 173.935 43.8574H170.686V40.9922H173.551C174.083 40.9922 174.536 40.9331 174.91 40.815C175.284 40.6968 175.56 40.5295 175.737 40.3128C175.934 40.0765 176.032 39.8007 176.032 39.4857C176.032 39.1509 175.914 38.8654 175.678 38.6291C175.441 38.3928 175.097 38.2156 174.644 38.0974C174.191 37.9597 173.62 37.8907 172.931 37.8907C172.143 37.8907 171.326 37.9892 170.479 38.186C169.632 38.3633 168.766 38.6291 167.88 38.9836L166.757 35.7934C167.801 35.3603 168.835 35.0155 169.859 34.7596C170.883 34.5037 171.897 34.3657 172.901 34.346C174.378 34.3066 175.707 34.4642 176.889 34.8187C178.07 35.1731 178.996 35.6852 179.665 36.3547C180.355 37.0241 180.699 37.8415 180.699 38.8064C180.699 39.5744 180.463 40.2637 179.99 40.874C179.537 41.4844 178.907 41.967 178.1 42.3214C177.292 42.6563 176.387 42.8236 175.382 42.8236L175.501 41.9079C177.253 41.9079 178.632 42.2624 179.636 42.9713C180.64 43.6606 181.142 44.6058 181.142 45.807C181.142 46.8309 180.788 47.727 180.079 48.495C179.39 49.2434 178.444 49.8242 177.243 50.2377C176.062 50.6317 174.723 50.8285 173.226 50.8285ZM195.366 48.4654V38.4224H190.167L190.078 40.4605C190.039 41.3072 189.99 42.1147 189.931 42.8827C189.872 43.6507 189.754 44.3497 189.576 44.9799C189.419 45.5903 189.182 46.1123 188.867 46.5454C188.552 46.959 188.129 47.2444 187.597 47.4021L183.048 46.7522C183.619 46.7522 184.082 46.5849 184.437 46.25C184.791 45.8956 185.067 45.413 185.264 44.8027C185.461 44.1724 185.608 43.4635 185.707 42.6759C185.805 41.8684 185.874 41.0217 185.914 40.1356L186.12 34.6414H199.974V48.4654H195.366ZM182.517 53.9596V46.7522H202.248V53.9596H197.965V50.5331H186.8V53.9596H182.517ZM212.592 50.7694C210.898 50.7694 209.392 50.415 208.072 49.706C206.773 48.9971 205.739 48.0323 204.971 46.8113C204.223 45.5707 203.848 44.1627 203.848 42.5873C203.848 40.9922 204.223 39.5843 204.971 38.3633C205.739 37.1227 206.773 36.1578 208.072 35.4685C209.392 34.7596 210.898 34.4051 212.592 34.4051C214.266 34.4051 215.762 34.7596 217.082 35.4685C218.401 36.1578 219.435 37.1127 220.183 38.3337C220.932 39.5547 221.306 40.9726 221.306 42.5873C221.306 44.1627 220.932 45.5707 220.183 46.8113C219.435 48.0323 218.401 48.9971 217.082 49.706C215.762 50.415 214.266 50.7694 212.592 50.7694ZM212.592 46.9885C213.36 46.9885 214.049 46.8113 214.66 46.4568C215.27 46.1024 215.752 45.6002 216.107 44.9504C216.461 44.2809 216.639 43.493 216.639 42.5873C216.639 41.6617 216.461 40.874 216.107 40.2242C215.752 39.5744 215.27 39.0722 214.66 38.7177C214.049 38.3633 213.36 38.186 212.592 38.186C211.824 38.186 211.135 38.3633 210.524 38.7177C209.914 39.0722 209.421 39.5744 209.047 40.2242C208.693 40.874 208.516 41.6617 208.516 42.5873C208.516 43.493 208.693 44.2809 209.047 44.9504C209.421 45.6002 209.914 46.1024 210.524 46.4568C211.135 46.8113 211.824 46.9885 212.592 46.9885ZM233.839 50.7694C232.5 50.7694 231.328 50.474 230.324 49.8833C229.32 49.2925 228.531 48.3964 227.961 47.1953C227.409 45.9743 227.135 44.4383 227.135 42.5873C227.135 40.7164 227.4 39.1804 227.931 37.9793C228.464 36.7781 229.23 35.882 230.236 35.2913C231.24 34.7005 232.44 34.4051 233.839 34.4051C235.336 34.4051 236.675 34.7497 237.856 35.439C239.056 36.1084 240.002 37.0537 240.692 38.2747C241.401 39.4957 241.756 40.9331 241.756 42.5873C241.756 44.261 241.401 45.7084 240.692 46.9294C240.002 48.1504 239.056 49.0957 237.856 49.7651C236.675 50.4346 235.336 50.7694 233.839 50.7694ZM224.446 56.2636V34.6414H228.847V37.8907L228.759 42.6168L229.055 47.3134V56.2636H224.446ZM233.042 46.9885C233.809 46.9885 234.489 46.8113 235.08 46.4568C235.689 46.1024 236.172 45.6002 236.527 44.9504C236.901 44.2809 237.088 43.493 237.088 42.5873C237.088 41.6617 236.901 40.874 236.527 40.2242C236.172 39.5744 235.689 39.0722 235.08 38.7177C234.489 38.3633 233.809 38.186 233.042 38.186C232.274 38.186 231.584 38.3633 230.975 38.7177C230.363 39.0722 229.881 39.5744 229.525 40.2242C229.172 40.874 228.995 41.6617 228.995 42.5873C228.995 43.493 229.172 44.2809 229.525 44.9504C229.881 45.6002 230.363 46.1024 230.975 46.4568C231.584 46.8113 232.274 46.9885 233.042 46.9885ZM252.429 50.7694C250.735 50.7694 249.229 50.415 247.909 49.706C246.609 48.9971 245.575 48.0323 244.807 46.8113C244.059 45.5707 243.685 44.1627 243.685 42.5873C243.685 40.9922 244.059 39.5843 244.807 38.3633C245.575 37.1227 246.609 36.1578 247.909 35.4685C249.229 34.7596 250.735 34.4051 252.429 34.4051C254.102 34.4051 255.598 34.7596 256.918 35.4685C258.238 36.1578 259.272 37.1127 260.019 38.3337C260.767 39.5547 261.143 40.9726 261.143 42.5873C261.143 44.1627 260.767 45.5707 260.019 46.8113C259.272 48.0323 258.238 48.9971 256.918 49.706C255.598 50.415 254.102 50.7694 252.429 50.7694ZM252.429 46.9885C253.195 46.9885 253.885 46.8113 254.497 46.4568C255.106 46.1024 255.589 45.6002 255.944 44.9504C256.297 44.2809 256.475 43.493 256.475 42.5873C256.475 41.6617 256.297 40.874 255.944 40.2242C255.589 39.5744 255.106 39.0722 254.497 38.7177C253.885 38.3633 253.195 38.186 252.429 38.186C251.661 38.186 250.971 38.3633 250.362 38.7177C249.75 39.0722 249.259 39.5744 248.885 40.2242C248.529 40.874 248.352 41.6617 248.352 42.5873C248.352 43.493 248.529 44.2809 248.885 44.9504C249.259 45.6002 249.75 46.1024 250.362 46.4568C250.971 46.8113 251.661 46.9885 252.429 46.9885ZM264.312 50.5331V34.6414H272.435C274.424 34.6414 275.979 35.0058 277.101 35.7344C278.225 36.4433 278.785 37.4476 278.785 38.7473C278.785 40.047 278.255 41.0709 277.191 41.8193C276.148 42.5478 274.759 42.9122 273.025 42.9122L273.499 41.8488C275.428 41.8488 276.865 42.2033 277.812 42.9122C278.776 43.6211 279.259 44.655 279.259 46.0137C279.259 47.412 278.725 48.5146 277.664 49.3221C276.6 50.1295 274.975 50.5331 272.79 50.5331H264.312ZM268.535 47.4021H272.405C273.252 47.4021 273.882 47.2643 274.295 46.9885C274.729 46.6931 274.945 46.25 274.945 45.6593C274.945 45.0489 274.749 44.6058 274.355 44.33C273.96 44.0347 273.342 43.887 272.495 43.887H268.535V47.4021ZM268.535 41.1694H272.022C272.829 41.1694 273.429 41.0217 273.824 40.7264C274.237 40.431 274.442 40.0075 274.442 39.4562C274.442 38.885 274.237 38.4618 273.824 38.186C273.429 37.9103 272.829 37.7725 272.022 37.7725H268.535V41.1694ZM291.282 39.722C293.37 39.7417 294.955 40.2143 296.038 41.1399C297.141 42.0457 297.692 43.3357 297.692 45.0094C297.692 46.7621 297.072 48.1306 295.832 49.1153C294.591 50.0801 292.867 50.5627 290.663 50.5627L282.688 50.5331V34.6414H287.266V39.722H291.282ZM290.248 47.2839C291.134 47.3035 291.815 47.1166 292.288 46.7227C292.758 46.3287 292.996 45.738 292.996 44.9504C292.996 44.1627 292.758 43.6015 292.288 43.2667C291.815 42.9122 291.134 42.725 290.248 42.7054L287.266 42.6759V47.2839H290.248ZM309.489 50.5331V45.2457L310.138 45.9842H305.737C303.452 45.9842 301.662 45.5116 300.362 44.5664C299.061 43.6211 298.412 42.2624 298.412 40.49C298.412 38.5996 299.091 37.1522 300.45 36.1479C301.828 35.1436 303.679 34.6414 306.002 34.6414H313.595V50.5331H309.489ZM298.175 50.5331L302.4 44.4777H307.096L303.079 50.5331H298.175ZM309.489 43.8279V37.2113L310.138 38.3928H306.092C305.146 38.3928 304.408 38.57 303.877 38.9245C303.365 39.279 303.109 39.8501 303.109 40.6377C303.109 42.1541 304.082 42.9122 306.032 42.9122H310.138L309.489 43.8279Z" fill="#2B2E66"/>
<path d="M1.04158 43.6824C0.366306 43.5223 -0.109494 42.8549 0.0218595 42.1333C1.79733 39.1665 0.547114 41.4774 1.6135 39.44L1.79714 39.1665C3.87261 36.0922 6.61051 32.8977 9.16374 30.65C13.0587 27.2542 17.8471 25.7736 22.4962 24.3791C24.4619 23.7749 26.3346 23.2282 28.1307 22.5047C34.8964 19.8682 40.1401 16.6333 44.7253 12.3313C44.9838 12.0756 45.2891 11.7913 45.5851 11.5445C48.3862 8.91961 51.7885 5.76361 53.2905 2.4347C53.24 2.14543 53.3201 1.80779 53.4661 1.52544C53.5393 1.38428 53.6411 1.28951 53.7052 1.18584C53.714 1.14834 53.7604 1.11971 53.7694 1.08221C53.7781 1.04468 53.7781 1.04468 53.7871 1.00716C53.9561 0.294383 54.6897 -0.126125 55.3649 0.0338676C56.0775 0.202745 56.516 0.861268 56.3845 1.58295C56.3489 1.733 56.3134 1.88307 56.2868 1.99561C54.9486 6.47272 50.7793 10.3582 47.3768 13.5142C47.0718 13.7985 46.8131 14.0542 46.517 14.3009C41.6819 18.8212 36.1601 22.2278 29.0782 25.0271C27.1608 25.7616 25.1487 26.3941 23.2294 26.9697C18.6643 28.3446 14.3509 29.6602 10.9002 32.6858C8.50392 34.7727 5.93188 37.7687 3.97591 40.6732L3.79226 40.9467C2.28204 43.2124 3.92742 40.7454 2.4748 42.8267C2.05498 43.4284 1.79188 43.8601 1.07022 43.7288C1.07911 43.6912 1.07911 43.6912 1.04158 43.6824Z" fill="#2B2E66"/>
<path d="M24.8431 37.2174C24.3178 37.093 23.9013 36.6774 23.8381 36.1076C23.7354 35.3703 24.2133 34.6909 24.9596 34.5509C36.5897 32.7896 46.8213 24.5555 51.0437 13.5905C51.2786 12.933 51.9944 12.5876 52.6983 12.7939C53.3648 12.9915 53.7942 13.6875 53.6343 14.3627L53.3874 15.5722C53.2983 15.9474 53.1058 16.2582 52.7899 16.4212C47.8281 27.3299 37.2391 35.3999 25.3574 37.2204C25.1894 37.2599 24.9931 37.2529 24.8431 37.2174Z" fill="#2B2E66"/>
<path d="M20.0242 45.3472C19.499 45.2226 19.0824 44.807 18.9818 44.2284C18.8791 43.4909 19.3945 42.8207 20.1319 42.718C23.1749 42.2503 26.2245 41.5861 29.206 40.7078C35.9888 38.6697 40.3665 35.7447 42.5249 31.8186C42.3758 31.1097 42.7501 30.3664 43.4482 30.0959C44.1086 29.8164 44.8875 30.0407 45.2597 30.644C45.775 31.4791 45.3543 32.2513 45.217 32.4961L45.1993 32.5711C42.7723 37.4637 37.8218 40.966 30.0144 43.3162C26.9401 44.2517 23.7601 44.9644 20.5584 45.434C20.3708 45.3897 20.2118 45.3915 20.0242 45.3472Z" fill="#2B2E66"/>
<path d="M18.4108 52.4928C17.8106 52.3506 17.3545 51.7672 17.3842 51.1402C17.403 50.3918 18.0507 49.8322 18.799 49.8509C22.3264 50.0131 25.9754 50.1645 29.3981 49.4302C33.0353 48.6278 36.0231 46.7208 37.5632 44.2331C37.9484 43.6111 38.7874 43.4136 39.4094 43.7988C40.0315 44.1837 40.2288 45.023 39.8437 45.6449C37.872 48.7831 34.4026 51.0516 29.9725 52.0229C26.2052 52.8735 22.3687 52.6778 18.6823 52.5175C18.5609 52.5283 18.4858 52.5105 18.4108 52.4928Z" fill="#2B2E66"/>
<path d="M9.8485 60.3693C9.21074 60.2182 8.61937 60.0386 8.0083 59.7749C6.92728 59.3207 5.91044 58.7627 4.93113 58.2137C3.98933 57.6737 3.08504 57.1425 2.13633 56.7989C1.4502 56.5173 1.12249 55.7267 1.36639 55.0316C1.64781 54.3456 2.43864 54.0179 3.13364 54.2618C4.25218 54.7247 5.26902 55.2827 6.27695 55.8781C7.21874 56.4181 8.0944 56.9029 9.03425 57.2842C12.4737 58.6538 16.563 58.117 19.5091 55.8832C20.0927 55.4269 20.9357 55.5474 21.3919 56.131C21.8479 56.7146 21.7274 57.5576 21.1438 58.0136C17.9568 60.4282 13.7125 61.2848 9.8485 60.3693Z" fill="#2B2E66"/>
</svg>
