<svg width="289" height="66" viewBox="0 0 289 66" fill="none" xmlns="http://www.w3.org/2000/svg">
<g clip-path="url(#clip0_314_13)">
<path d="M70.5162 34.8865H67.651V42.1277H63.5322V24.1532H67.651V31.42H70.6185L75.3257 24.1532H79.7002L73.8419 32.8323L79.8793 42.1277H75.1722L70.5162 34.8865ZM89.9481 28.1076C91.2273 28.1076 92.3871 28.4071 93.4273 29.0063C94.4848 29.5883 95.3118 30.4186 95.9088 31.4971C96.5058 32.5585 96.8042 33.7994 96.8042 35.2203C96.8042 36.6412 96.5058 37.8908 95.9088 38.9693C95.3118 40.0307 94.4848 40.8608 93.4273 41.46C92.3871 42.042 91.2273 42.3331 89.9481 42.3331C88.1916 42.3331 86.8101 41.7768 85.8038 40.664V47.1092H81.813V28.313H85.6247V29.905C86.6139 28.7068 88.0551 28.1076 89.9481 28.1076ZM89.2574 39.0463C90.2807 39.0463 91.1163 38.7039 91.7645 38.0192C92.4296 37.3173 92.7622 36.3845 92.7622 35.2203C92.7622 34.0562 92.4296 33.1318 91.7645 32.4471C91.1163 31.7452 90.2807 31.3943 89.2574 31.3943C88.2341 31.3943 87.3899 31.7452 86.7248 32.4471C86.0766 33.1318 85.7526 34.0562 85.7526 35.2203C85.7526 36.3845 86.0766 37.3173 86.7248 38.0192C87.3899 38.7039 88.2341 39.0463 89.2574 39.0463ZM106.841 32.7296C108.632 32.7466 109.988 33.1491 110.909 33.9364C111.83 34.7238 112.29 35.8537 112.29 37.3259C112.29 38.8666 111.77 40.0564 110.73 40.8951C109.689 41.7339 108.214 42.1533 106.304 42.1533L99.6013 42.1277V28.313H103.567V32.7296H106.841ZM113.774 28.313H117.739V42.1277H113.774V28.313ZM105.946 39.3031C106.713 39.3202 107.302 39.1577 107.711 38.8152C108.12 38.4728 108.325 37.9592 108.325 37.2746C108.325 36.6069 108.12 36.1191 107.711 35.8109C107.319 35.5028 106.73 35.3401 105.946 35.323L103.567 35.2974V39.3031H105.946ZM134.787 28.313V42.1277H130.796V31.5998H126.447L126.319 34.0392C126.251 35.8537 126.08 37.3602 125.807 38.5584C125.534 39.7567 125.091 40.6983 124.477 41.383C123.863 42.0677 123.01 42.4101 121.919 42.4101C121.339 42.4101 120.648 42.3074 119.846 42.102L120.051 38.8152C120.324 38.8495 120.52 38.8666 120.64 38.8666C121.236 38.8666 121.68 38.6525 121.97 38.2246C122.277 37.7795 122.481 37.2232 122.584 36.5556C122.686 35.8709 122.763 34.9722 122.814 33.8594L123.019 28.313H134.787ZM145.071 42.3331C143.621 42.3331 142.317 42.0336 141.157 41.4344C140.014 40.8181 139.119 39.9707 138.471 38.8923C137.823 37.8138 137.499 36.5899 137.499 35.2203C137.499 33.8508 137.823 32.6269 138.471 31.5484C139.119 30.4699 140.014 29.6312 141.157 29.032C142.317 28.4157 143.621 28.1076 145.071 28.1076C146.521 28.1076 147.817 28.4157 148.96 29.032C150.102 29.6312 150.998 30.4699 151.646 31.5484C152.294 32.6269 152.618 33.8508 152.618 35.2203C152.618 36.5899 152.294 37.8138 151.646 38.8923C150.998 39.9707 150.102 40.8181 148.96 41.4344C147.817 42.0336 146.521 42.3331 145.071 42.3331ZM145.071 39.0463C146.094 39.0463 146.93 38.7039 147.578 38.0192C148.243 37.3173 148.576 36.3845 148.576 35.2203C148.576 34.0562 148.243 33.1318 147.578 32.4471C146.93 31.7452 146.094 31.3943 145.071 31.3943C144.048 31.3943 143.203 31.7452 142.538 32.4471C141.873 33.1318 141.541 34.0562 141.541 35.2203C141.541 36.3845 141.873 37.3173 142.538 38.0192C143.203 38.7039 144.048 39.0463 145.071 39.0463ZM171.536 34.9379C172.355 35.1947 172.985 35.5885 173.429 36.1191C173.889 36.6497 174.12 37.2832 174.12 38.0192C174.12 38.8923 173.821 39.6626 173.224 40.3302C172.627 40.9808 171.809 41.4857 170.768 41.8452C169.728 42.2047 168.551 42.3844 167.238 42.3844C166.164 42.3844 165.106 42.2731 164.066 42.0506C163.026 41.8282 162.062 41.4943 161.175 41.0492L162.25 38.2503C163.699 38.9522 165.302 39.3031 167.059 39.3031C167.997 39.3031 168.73 39.1661 169.259 38.8923C169.805 38.6012 170.078 38.199 170.078 37.6854C170.078 37.2403 169.89 36.9064 169.515 36.684C169.14 36.4442 168.594 36.3245 167.878 36.3245H165.064V33.8337H167.519C168.219 33.8337 168.756 33.7224 169.131 33.4999C169.506 33.2774 169.694 32.9521 169.694 32.5242C169.694 32.079 169.455 31.7368 168.978 31.4971C168.517 31.2573 167.852 31.1376 166.982 31.1376C165.652 31.1376 164.202 31.4543 162.633 32.0876L161.661 29.3144C163.571 28.4757 165.43 28.0562 167.238 28.0562C168.483 28.0562 169.592 28.2103 170.564 28.5184C171.553 28.8266 172.329 29.2801 172.892 29.8793C173.455 30.4613 173.736 31.1462 173.736 31.9336C173.736 32.5841 173.54 33.1747 173.148 33.7053C172.755 34.2189 172.218 34.6297 171.536 34.9379ZM192.449 38.8409V45.1063H188.739V42.1277H179.069V45.1063H175.36V38.8409H175.923C176.775 38.8239 177.364 38.3187 177.688 37.3259C178.012 36.3331 178.216 34.9208 178.302 33.0891L178.481 28.313H190.479V38.8409H192.449ZM181.909 33.3715C181.858 34.7752 181.747 35.9223 181.576 36.8124C181.423 37.7025 181.124 38.3787 180.681 38.8409H186.488V31.5998H181.986L181.909 33.3715ZM201.407 42.3331C199.958 42.3331 198.653 42.0336 197.493 41.4344C196.35 40.8181 195.455 39.9707 194.807 38.8923C194.159 37.8138 193.835 36.5899 193.835 35.2203C193.835 33.8508 194.159 32.6269 194.807 31.5484C195.455 30.4699 196.35 29.6312 197.493 29.032C198.653 28.4157 199.958 28.1076 201.407 28.1076C202.856 28.1076 204.153 28.4157 205.296 29.032C206.437 29.6312 207.333 30.4699 207.982 31.5484C208.63 32.6269 208.954 33.8508 208.954 35.2203C208.954 36.5899 208.63 37.8138 207.982 38.8923C207.333 39.9707 206.437 40.8181 205.296 41.4344C204.153 42.0336 202.856 42.3331 201.407 42.3331ZM201.407 39.0463C202.43 39.0463 203.266 38.7039 203.915 38.0192C204.579 37.3173 204.912 36.3845 204.912 35.2203C204.912 34.0562 204.579 33.1318 203.915 32.4471C203.266 31.7452 202.43 31.3943 201.407 31.3943C200.384 31.3943 199.54 31.7452 198.874 32.4471C198.209 33.1318 197.877 34.0562 197.877 35.2203C197.877 36.3845 198.209 37.3173 198.874 38.0192C199.54 38.7039 200.384 39.0463 201.407 39.0463ZM219.808 28.1076C221.087 28.1076 222.246 28.4071 223.288 29.0063C224.345 29.5883 225.172 30.4186 225.768 31.4971C226.366 32.5585 226.665 33.7994 226.665 35.2203C226.665 36.6412 226.366 37.8908 225.768 38.9693C225.172 40.0307 224.345 40.8608 223.288 41.46C222.246 42.042 221.087 42.3331 219.808 42.3331C218.051 42.3331 216.67 41.7768 215.665 40.664V47.1092H211.674V28.313H215.485V29.905C216.474 28.7068 217.915 28.1076 219.808 28.1076ZM219.119 39.0463C220.142 39.0463 220.977 38.7039 221.625 38.0192C222.29 37.3173 222.622 36.3845 222.622 35.2203C222.622 34.0562 222.29 33.1318 221.625 32.4471C220.977 31.7452 220.142 31.3943 219.119 31.3943C218.095 31.3943 217.25 31.7452 216.584 32.4471C215.937 33.1318 215.613 34.0562 215.613 35.2203C215.613 36.3845 215.937 37.3173 216.584 38.0192C217.25 38.7039 218.095 39.0463 219.119 39.0463ZM235.909 42.3331C234.458 42.3331 233.153 42.0336 231.994 41.4344C230.85 40.8181 229.955 39.9707 229.307 38.8923C228.66 37.8138 228.336 36.5899 228.336 35.2203C228.336 33.8508 228.66 32.6269 229.307 31.5484C229.955 30.4699 230.85 29.6312 231.994 29.032C233.153 28.4157 234.458 28.1076 235.909 28.1076C237.358 28.1076 238.653 28.4157 239.796 29.032C240.939 29.6312 241.835 30.4699 242.482 31.5484C243.13 32.6269 243.456 33.8508 243.456 35.2203C243.456 36.5899 243.13 37.8138 242.482 38.8923C241.835 39.9707 240.939 40.8181 239.796 41.4344C238.653 42.0336 237.358 42.3331 235.909 42.3331ZM235.909 39.0463C236.932 39.0463 237.768 38.7039 238.415 38.0192C239.081 37.3173 239.413 36.3845 239.413 35.2203C239.413 34.0562 239.081 33.1318 238.415 32.4471C237.768 31.7452 236.932 31.3943 235.909 31.3943C234.886 31.3943 234.04 31.7452 233.375 32.4471C232.711 33.1318 232.377 34.0562 232.377 35.2203C232.377 36.3845 232.711 37.3173 233.375 38.0192C234.04 38.7039 234.886 39.0463 235.909 39.0463ZM256.715 34.9122C258.333 35.4601 259.145 36.5556 259.145 38.199C259.145 39.4485 258.675 40.4159 257.738 41.1006C256.798 41.7852 255.401 42.1277 253.543 42.1277H246.2V28.313H253.235C254.958 28.313 256.305 28.6298 257.276 29.2631C258.249 29.8793 258.735 30.7524 258.735 31.8822C258.735 32.5669 258.555 33.1747 258.198 33.7053C257.858 34.2189 257.362 34.6211 256.715 34.9122ZM249.857 33.9878H252.877C254.276 33.9878 254.974 33.4913 254.974 32.4985C254.974 31.5227 254.276 31.0349 252.877 31.0349H249.857V33.9878ZM253.209 39.4058C254.676 39.4058 255.409 38.9009 255.409 37.8908C255.409 37.3602 255.24 36.9751 254.898 36.7353C254.556 36.4785 254.02 36.3502 253.287 36.3502H249.857V39.4058H253.209ZM269.558 32.7296C271.348 32.7466 272.721 33.1575 273.677 33.9621C274.632 34.7495 275.11 35.8709 275.11 37.3259C275.11 38.8495 274.572 40.0391 273.499 40.8951C272.44 41.7339 270.949 42.1533 269.022 42.1533L262.115 42.1277V28.313H266.08V32.7296H269.558ZM268.662 39.3031C269.43 39.3202 270.019 39.1577 270.429 38.8152C270.837 38.4728 271.043 37.9592 271.043 37.2746C271.043 36.6069 270.837 36.1191 270.429 35.8109C270.035 35.5028 269.448 35.3401 268.662 35.323L266.08 35.2974V39.3031H268.662ZM288.882 28.313V42.1277H285.327V38.1733H282.385L279.775 42.1277H275.528L278.675 37.6084C277.72 37.2318 276.987 36.6926 276.475 35.9907C275.979 35.2717 275.733 34.4073 275.733 33.3972C275.733 31.7709 276.313 30.5213 277.472 29.6483C278.649 28.7582 280.26 28.313 282.307 28.313H288.882ZM282.385 31.5741C281.531 31.5741 280.884 31.7282 280.44 32.0363C280.014 32.3444 279.801 32.8409 279.801 33.5256C279.801 34.2103 280.004 34.7154 280.414 35.0406C280.84 35.3487 281.479 35.5028 282.333 35.5028H285.327V31.5741H282.385Z" fill="white"/>
<path d="M12.8986 0.00896457C12.2038 0.0700657 10.736 0.323199 10.2931 0.445401C9.52879 0.663618 8.19995 1.37937 6.93192 2.2697C6.4108 2.63631 6.35001 2.65376 5.45544 2.74105C4.93433 2.79343 4.22216 2.87199 3.86606 2.91564C3.50997 2.95927 2.84121 3.03783 2.38959 3.09021C1.13024 3.2386 -0.042256 3.44807 0.00116969 3.5179C0.01854 3.55283 0.322521 3.63139 0.669926 3.69249C1.01733 3.75358 1.61661 3.85833 1.99876 3.92817C2.38089 3.998 2.92807 4.09401 3.21467 4.14639C5.94181 4.61774 6.55846 4.80976 7.38355 5.43822C8.00888 5.92704 8.29548 6.24128 8.84266 7.05304C9.93698 8.6504 10.4928 10.3874 10.4755 12.1506C10.4668 13.4337 10.3278 14.0447 9.42456 16.8379C9.19006 17.5537 8.92083 18.4964 8.8166 18.9328C8.72106 19.3605 8.61684 19.797 8.59077 19.893C8.43444 20.5388 8.26944 21.7696 8.16521 23.0964C7.97414 25.5928 8.24337 28.2289 8.96424 30.9347C9.03373 31.1967 9.12057 31.4934 9.15532 31.5895C9.19873 31.6854 9.2769 31.9211 9.32902 32.1131C9.85882 33.8416 11.2745 36.6521 12.6207 38.6509C13.2894 39.6461 13.715 40.1348 15.3739 41.8021C16.6853 43.1201 17.7276 44.0627 18.3268 44.4643C18.4397 44.5342 18.8132 44.8309 19.1606 45.1189C19.508 45.407 19.9857 45.7998 20.2288 46.0006C21.5839 47.0917 22.6607 48.4185 23.0081 49.4222C23.2427 50.0944 23.1732 51.6044 22.8692 52.4686C22.5912 53.2454 21.992 54.319 21.5491 54.8253C21.1582 55.2705 20.446 55.8117 20.255 55.8117C20.1854 55.8117 19.6817 55.5411 19.1432 55.2181C18.5961 54.8952 16.8417 53.9611 15.2436 53.1495C8.79923 49.885 6.92323 48.8898 5.74205 48.1216C4.50876 47.31 4.21346 47.1441 4.21346 47.2313C4.22216 47.3798 5.29911 48.5319 6.01997 49.1517C6.79296 49.8238 8.6429 51.0982 9.3377 51.4473C9.55483 51.552 9.78933 51.6916 9.85882 51.7528C9.92829 51.8226 10.5362 52.1544 11.205 52.5035C11.8738 52.8526 12.7162 53.2977 13.0723 53.4899C13.4284 53.6907 14.0972 54.0135 14.5488 54.2231C16.2945 55.0087 17.1978 55.5062 17.163 55.6372C17.0588 56.0735 16.8938 57.6535 16.9198 57.9153C16.9459 58.0898 16.9285 58.2818 16.8938 58.3518C16.8069 58.4826 16.7114 58.4391 15.9818 57.9939C15.4347 57.671 14.4185 57.1472 14.1753 57.0685C13.6455 56.9115 12.3949 56.3879 12.1951 56.2394C11.978 56.0824 11.7696 56.0212 11.7696 56.1084C11.7696 56.1782 12.916 57.2519 13.0984 57.3566C13.2026 57.409 13.5413 57.5225 13.854 57.6012C14.5575 57.7843 14.792 57.8979 14.8528 58.0724C14.8962 58.2295 15.5302 58.5175 15.8168 58.5175C16.0426 58.5175 16.9459 59.0064 17.0067 59.1635C17.0328 59.2247 17.5973 59.5477 18.2573 59.8706C19.7773 60.6299 20.1333 60.8482 20.0725 61.0053C20.0117 61.1712 20.3417 61.3981 20.6371 61.3981C20.9585 61.3981 21.8095 61.8607 22.2352 62.2623C22.4263 62.4368 22.7563 62.7249 22.9733 62.8994C23.1905 63.0739 23.5553 63.3969 23.7897 63.6238C24.8494 64.6276 26.1869 65.457 27.1422 65.7013C29.0269 66.1639 30.3992 66.1029 32.9178 65.4221C34.1426 65.0902 35.8622 64.1999 37.1301 63.2485C37.5732 62.9169 39.2147 61.3108 39.2147 61.2061C39.2147 61.1712 39.345 60.9878 39.5013 60.8133C39.9789 60.2546 40.3785 59.5651 40.2222 59.5651C40.2048 59.5651 39.7183 60.0363 39.1539 60.6213C37.1997 62.6376 35.1065 63.7373 32.3098 64.2349C31.4848 64.3833 29.8607 64.4008 29.2094 64.2698C27.0033 63.816 26.6472 63.685 25.1272 62.7423C23.3902 61.6687 21.8443 60.4903 21.8443 60.246C21.8443 60.2109 21.7487 60.0363 21.6272 59.8618C21.4536 59.6 21.4188 59.469 21.4621 59.2247C21.4881 59.0499 21.5751 58.8493 21.6358 58.7795C21.7487 58.666 21.7835 58.666 21.9572 58.7795C23.0516 59.4865 25.11 60.2895 26.4039 60.5164C26.7427 60.5776 27.177 60.6648 27.3769 60.7086C28.1063 60.8656 28.2105 60.7521 27.5331 60.5338C26.9599 60.3507 23.399 58.535 22.9473 58.2034C22.322 57.7494 22.2872 57.6098 22.6259 56.894C23.1818 55.7245 24.8406 54.2666 28.0976 52.0758C29.5394 51.1157 31.5282 49.9983 32.2665 49.754C33.2566 49.4222 34.099 49.3263 35.3931 49.3786C36.8957 49.4484 38.7456 49.7102 39.866 50.0158C40.1526 50.0944 40.5262 50.1903 40.691 50.2252C41.2209 50.3387 43.9828 51.2204 44.3997 51.4124C44.556 51.4822 44.834 51.5958 45.0077 51.6567C45.1899 51.7266 45.7112 51.9536 46.1627 52.1719C46.6143 52.39 47.1268 52.6257 47.2919 52.7043C47.5697 52.8265 48.6293 53.4201 50.1319 54.2755C50.7399 54.6245 51.8515 55.3491 52.4595 55.8029C52.6506 55.9425 53.3541 56.4402 54.0228 56.9115C54.6915 57.3829 55.3603 57.8629 55.4992 57.9677C56.7673 58.9191 57.4275 59.2421 58.4783 59.4253C59.7115 59.6435 60.6842 59.3119 61.0491 58.5524C61.1447 58.3605 61.2488 58.1422 61.2836 58.0638C61.3877 57.8541 61.3791 57.6447 61.2748 57.6447C61.2314 57.6447 61.1881 57.5923 61.1881 57.5311C61.1881 57.3043 60.6842 56.7107 60.0416 56.1608C59.6943 55.8641 59.1992 55.4364 58.9386 55.2181C58.6868 54.9912 58.3046 54.6683 58.0962 54.5024C57.0018 53.6121 55.4818 52.3551 55.3691 52.2329C55.2995 52.1544 55.0563 51.9536 54.8392 51.7877C54.622 51.6307 54.2572 51.3251 54.014 51.1243C53.7796 50.9149 53.2324 50.4435 52.7983 50.077C52.3552 49.7016 51.7993 49.2216 51.5389 49.0033C51.2869 48.785 50.9569 48.5144 50.8006 48.3922C50.6529 48.2701 50.1231 47.8161 49.6368 47.3884C49.1418 46.9521 48.525 46.4283 48.2646 46.21C47.9954 45.9918 47.3874 45.4419 46.9097 44.9881C46.4233 44.5255 45.9022 44.0627 45.7459 43.9494C45.381 43.6962 43.8177 41.9331 43.2359 41.1212C42.9926 40.7722 42.7146 40.3968 42.6191 40.2746C42.4108 39.9952 42.2284 39.6548 41.9678 39.0525C41.8462 38.7908 41.577 38.1972 41.3598 37.7432C41.1513 37.2894 40.7954 36.4775 40.5781 35.9451C40.1612 34.9238 39.371 33.3266 38.7718 32.2878C38.2593 31.3887 36.8523 29.3026 36.418 28.7876C36.2095 28.5345 35.81 28.0281 35.5234 27.6528C34.9502 26.9021 31.9973 23.8733 31.4414 23.4631C31.2504 23.3233 30.9376 23.0615 30.7465 22.887C30.5555 22.7124 30.2429 22.4504 30.0518 22.3108C29.8607 22.1712 29.6435 21.9878 29.5741 21.9006C29.5046 21.8133 29.1746 21.5252 28.8358 21.2634C27.5851 20.2596 25.961 18.5051 25.136 17.2307C24.7972 16.7245 23.4945 14.0884 23.4945 13.9226C23.4945 13.8702 23.4598 13.7567 23.4164 13.6694C23.3209 13.4948 22.9473 12.299 22.817 11.7316C22.4437 10.1692 22.2786 9.45345 22.2786 9.35742C22.2786 9.08684 21.4536 6.25 21.2189 5.70882C20.559 4.2162 19.9596 3.29096 19.0216 2.33953C18.2747 1.58886 18.0315 1.39683 17.3454 1.04768C16.9025 0.820736 16.3379 0.567603 16.0861 0.471586C15.3652 0.209725 13.5847 -0.0521364 12.8986 0.00896457ZM13.8627 3.09021C14.0711 3.20367 14.2882 3.67502 14.2882 4.01545C14.2882 4.32096 14.0451 4.71375 13.7932 4.82721C13.4545 4.98433 12.942 4.94069 12.6989 4.73993C12.3862 4.49553 12.2386 3.98925 12.3688 3.59646C12.5512 3.04655 13.2981 2.79343 13.8627 3.09021ZM25.3357 34.1906C25.8307 34.6881 26.5256 35.3515 26.8818 35.6571C27.2377 35.9626 27.7242 36.3991 27.9674 36.6172C28.4363 37.0623 29.0877 37.5949 29.8347 38.1534C30.0952 38.3542 30.5121 38.6684 30.7465 38.8517C31.2764 39.262 33.5084 40.7633 34.5247 41.3918C34.9328 41.645 35.5148 42.0115 35.8274 42.2123C36.1314 42.4043 36.7394 42.7536 37.1737 42.9804C39.7617 44.3422 40.5607 44.7436 41.3252 45.0754C41.7941 45.2848 42.1588 45.4943 42.1414 45.5466C42.0895 45.6951 41.8984 45.6515 39.6923 44.9009C37.1127 44.0278 36.3051 43.6962 34.5073 42.7796C32.9526 41.9854 31.6325 41.13 30.321 40.0564C29.8519 39.6722 29.3657 39.2794 29.2354 39.1835C28.8358 38.8866 26.6819 36.6609 26.1435 35.9887C25.3966 35.0635 25.1272 34.6881 24.8842 34.2953C24.7713 34.1033 24.5888 33.8327 24.4759 33.7019C24.3022 33.4923 24.2762 33.2915 24.4151 33.2915C24.4325 33.2915 24.8494 33.7019 25.3357 34.1906ZM18.3789 56.2655C18.8219 56.5536 18.8914 56.6846 18.6829 56.8505C18.4832 57.0162 18.3529 57.7233 18.3789 58.5175C18.3963 59.12 18.3789 59.2508 18.2747 59.2333C17.6146 59.0851 17.3107 57.8804 17.632 56.6497C17.771 56.1173 17.8231 55.9863 17.9099 55.9863C17.936 55.9863 18.1444 56.1084 18.3789 56.2655Z" fill="white"/>
</g>
<defs>
<clipPath id="clip0_314_13">
<rect width="289" height="66" fill="white"/>
</clipPath>
</defs>
</svg>
