<?xml version="1.0" encoding="UTF-8"?>
<!DOCTYPE svg PUBLIC "-//W3C//DTD SVG 1.1//EN" "http://www.w3.org/Graphics/SVG/1.1/DTD/svg11.dtd">
<svg xmlns="http://www.w3.org/2000/svg" version="1.1" width="314px" height="49px" style="shape-rendering:geometricPrecision; text-rendering:geometricPrecision; image-rendering:optimizeQuality; fill-rule:evenodd; clip-rule:evenodd" xmlns:xlink="http://www.w3.org/1999/xlink">
<g><path style="opacity:0.654" fill="#fefffe" d="M 37.5,1.5 C 48.2478,-0.879379 57.0812,2.12062 64,10.5C 64.4828,11.448 64.6495,12.448 64.5,13.5C 61.8135,12.3362 59.4801,10.5029 57.5,8C 50.7704,3.51215 43.7704,2.84549 36.5,6C 32.624,8.4077 28.9573,10.9077 25.5,13.5C 25.3505,12.448 25.5172,11.448 26,10.5C 29.1607,6.49052 32.994,3.49052 37.5,1.5 Z"/></g>
<g><path style="opacity:0.609" fill="#fefffe" d="M 66.5,31.5 C 72.0833,31.0454 76.4166,28.5454 79.5,24C 77.1893,24.1554 74.856,24.1554 72.5,24C 77.2144,21.9488 81.3811,19.1155 85,15.5C 85.4828,14.552 85.6495,13.552 85.5,12.5C 81.5587,13.757 77.5587,14.9236 73.5,16C 69.9668,16.9031 66.6335,16.5697 63.5,15C 71.5809,14.2303 79.2476,12.0637 86.5,8.5C 88.7394,8.57429 89.7394,9.74096 89.5,12C 88.9077,15.6005 87.0743,18.4338 84,20.5C 83.6401,22.6079 82.9734,24.6079 82,26.5C 78.1238,29.6753 74.6238,33.1753 71.5,37C 68.2165,38.1245 64.8831,39.1245 61.5,40C 53.8764,46.5705 45.2097,48.2372 35.5,45C 32.6384,44.0695 30.305,42.4029 28.5,40C 24.6595,39.124 20.9928,37.7906 17.5,36C 14.5157,32.7365 11.3491,29.5698 8,26.5C 7.4492,22.2914 5.4492,18.9581 2,16.5C 0.369455,14.0446 0.202789,11.5446 1.5,9C 5.11293,8.79202 8.44627,9.79202 11.5,12C 16.5956,12.8452 21.5956,14.0119 26.5,15.5C 19.3351,17.0038 12.5018,16.0038 6,12.5C 5.5,12.8333 5,13.1667 4.5,13.5C 7.6156,18.4057 11.9489,21.9057 17.5,24C 15.0797,24.6869 12.913,24.1869 11,22.5C 10.8348,24.678 11.6682,26.5114 13.5,28C 16.8013,29.5992 20.1346,31.0992 23.5,32.5C 19.8446,33.9752 20.1779,35.3085 24.5,36.5C 24.9059,35.4425 24.9059,34.1092 24.5,32.5C 25.675,32.281 26.675,32.6143 27.5,33.5C 34.6093,43.7261 43.9426,46.2261 55.5,41C 58.6945,39.3054 61.0278,36.8054 62.5,33.5C 63.325,32.6143 64.325,32.281 65.5,32.5C 64.1991,37.346 65.5324,37.846 69.5,34C 67.8807,33.7645 66.8807,32.9311 66.5,31.5 Z"/></g>
<g><path style="opacity:0.747" fill="#fefffe" d="M 43.5,12.5 C 44.8221,12.33 45.9887,12.6634 47,13.5C 47.498,16.4816 47.6646,19.4816 47.5,22.5C 50.5184,22.3354 53.5184,22.502 56.5,23C 57.8333,24 57.8333,25 56.5,26C 53.5184,26.498 50.5184,26.6646 47.5,26.5C 47.5,29.5 47.5,32.5 47.5,35.5C 46.1667,35.5 44.8333,35.5 43.5,35.5C 43.5,32.5 43.5,29.5 43.5,26.5C 40.4816,26.6646 37.4816,26.498 34.5,26C 33.1667,25 33.1667,24 34.5,23C 37.4816,22.502 40.4816,22.3354 43.5,22.5C 43.5,19.1667 43.5,15.8333 43.5,12.5 Z"/></g>
<g><path style="opacity:0.603" fill="#fefffe" d="M 22.5,17.5 C 23.5,17.5 24.5,17.5 25.5,17.5C 24.1667,21.8333 24.1667,26.1667 25.5,30.5C 24.5,30.5 23.5,30.5 22.5,30.5C 21.1667,26.1667 21.1667,21.8333 22.5,17.5 Z"/></g>
<g><path style="opacity:0.618" fill="#fefffe" d="M 66.5,31.5 C 65.1201,31.0377 64.4534,30.0377 64.5,28.5C 65.7216,24.8314 65.7216,21.1647 64.5,17.5C 65.5,17.5 66.5,17.5 67.5,17.5C 69.0469,22.3266 68.7136,26.9933 66.5,31.5 Z"/></g>
<g><path style="opacity:0.738" fill="#fefffe" d="M 94.5,17.5 C 96.1667,17.5 97.8333,17.5 99.5,17.5C 99.2552,26.427 100.922,26.7604 104.5,18.5C 106.421,17.359 108.421,17.1923 110.5,18C 108.422,20.411 106.755,23.0777 105.5,26C 107.034,28.8994 108.701,31.7328 110.5,34.5C 108.926,35.6309 107.259,35.7975 105.5,35C 103.954,32.7432 102.288,30.5765 100.5,28.5C 99.6922,30.4233 99.1922,32.4233 99,34.5C 97.6439,35.3802 96.1439,35.7135 94.5,35.5C 94.5,29.5 94.5,23.5 94.5,17.5 Z"/></g>
<g><path style="opacity:0.803" fill="#fefffe" d="M 111.5,21.5 C 115.182,21.3347 118.848,21.5014 122.5,22C 127.221,25.5737 127.554,29.5737 123.5,34C 121.246,35.651 118.912,35.8177 116.5,34.5C 115.548,36.0453 115.215,37.712 115.5,39.5C 114.167,39.5 112.833,39.5 111.5,39.5C 111.5,33.5 111.5,27.5 111.5,21.5 Z M 116.5,25.5 C 122.175,25.8597 122.842,27.8597 118.5,31.5C 116.027,29.9285 115.361,27.9285 116.5,25.5 Z"/></g>
<g><path style="opacity:0.727" fill="#fefffe" d="M 127.5,21.5 C 129.167,21.5 130.833,21.5 132.5,21.5C 132.5,22.8333 132.5,24.1667 132.5,25.5C 138.496,24.3327 140.996,26.6661 140,32.5C 136.662,35.3181 132.829,36.1515 128.5,35C 127.533,30.5986 127.2,26.0986 127.5,21.5 Z M 132.5,28.5 C 133.5,28.5 134.5,28.5 135.5,28.5C 135.5,29.5 135.5,30.5 135.5,31.5C 134.5,31.5 133.5,31.5 132.5,31.5C 132.5,30.5 132.5,29.5 132.5,28.5 Z"/></g>
<g><path style="opacity:0.839" fill="#fefffe" d="M 141.5,21.5 C 142.833,21.5 144.167,21.5 145.5,21.5C 145.5,26.1667 145.5,30.8333 145.5,35.5C 144.167,35.5 142.833,35.5 141.5,35.5C 141.5,30.8333 141.5,26.1667 141.5,21.5 Z"/></g>
<g><path style="opacity:0.739" fill="#fefffe" d="M 149.5,21.5 C 153.5,21.5 157.5,21.5 161.5,21.5C 161.5,26.1667 161.5,30.8333 161.5,35.5C 159.856,35.7135 158.356,35.3802 157,34.5C 156.502,31.5184 156.335,28.5184 156.5,25.5C 155.5,25.5 154.5,25.5 153.5,25.5C 153.789,28.6492 153.289,31.6492 152,34.5C 150.301,35.4061 148.467,35.7394 146.5,35.5C 146.275,33.2841 147.108,31.6174 149,30.5C 149.498,27.5184 149.665,24.5184 149.5,21.5 Z"/></g>
<g><path style="opacity:0.758" fill="#fefffe" d="M 166.5,21.5 C 172.705,19.9048 176.705,22.0715 178.5,28C 175.784,36.0151 170.95,37.5151 164,32.5C 162.812,28.2586 163.645,24.5919 166.5,21.5 Z M 168.5,25.5 C 174.175,25.8597 174.842,27.8597 170.5,31.5C 167.513,30.2055 166.846,28.2055 168.5,25.5 Z"/></g>
<g><path style="opacity:0.746" fill="#fefffe" d="M 198.5,31.5 C 195.067,35.5822 190.733,36.5822 185.5,34.5C 185.312,32.8967 185.812,31.5634 187,30.5C 189.139,31.7691 191.305,31.7691 193.5,30.5C 191.955,29.5481 190.288,29.2148 188.5,29.5C 188.5,28.5 188.5,27.5 188.5,26.5C 189.978,26.762 191.311,26.4287 192.5,25.5C 190.587,24.9488 188.587,24.7821 186.5,25C 185.167,24 185.167,23 186.5,22C 189.5,21.3333 192.5,21.3333 195.5,22C 197.698,23.67 198.032,25.67 196.5,28C 197.823,28.8159 198.489,29.9826 198.5,31.5 Z"/></g>
<g><path style="opacity:0.781" fill="#fefffe" d="M 215.5,31.5 C 215.5,33.5 215.5,35.5 215.5,37.5C 212.47,37.0924 209.47,36.4257 206.5,35.5C 203.802,36.1914 201.135,36.8581 198.5,37.5C 198.5,35.5 198.5,33.5 198.5,31.5C 200.712,28.6786 201.712,25.3453 201.5,21.5C 205.5,21.5 209.5,21.5 213.5,21.5C 212.931,25.3293 213.598,28.6627 215.5,31.5 Z M 205.5,25.5 C 206.5,25.5 207.5,25.5 208.5,25.5C 208.5,27.5 208.5,29.5 208.5,31.5C 207.127,31.6567 205.793,31.49 204.5,31C 205.406,29.3005 205.739,27.4672 205.5,25.5 Z"/></g>
<g><path style="opacity:0.755" fill="#fefffe" d="M 215.5,31.5 C 215.45,21.4207 219.95,18.754 229,23.5C 231.951,31.5532 229.118,35.3865 220.5,35C 218.677,34.0027 217.01,32.8361 215.5,31.5 Z M 221.5,25.5 C 225.35,25.7007 226.35,27.5341 224.5,31C 220.537,31.1177 219.537,29.2843 221.5,25.5 Z"/></g>
<g><path style="opacity:0.791" fill="#fefffe" d="M 232.5,21.5 C 236.182,21.3347 239.848,21.5014 243.5,22C 245.538,23.236 246.705,25.0694 247,27.5C 249.354,21.9051 253.521,20.0718 259.5,22C 263.5,26 263.5,30 259.5,34C 253.406,36.7051 249.239,34.8718 247,28.5C 246.118,34.1887 242.951,36.1887 237.5,34.5C 236.548,36.0453 236.215,37.712 236.5,39.5C 235.167,39.5 233.833,39.5 232.5,39.5C 232.5,33.5 232.5,27.5 232.5,21.5 Z M 237.5,25.5 C 239.958,25.2275 241.625,26.2275 242.5,28.5C 240.206,32.5272 238.206,32.3606 236.5,28C 236.743,27.0979 237.077,26.2646 237.5,25.5 Z M 253.5,25.5 C 254.833,25.5 256.167,25.5 257.5,25.5C 257.66,27.1992 257.494,28.8659 257,30.5C 252.633,31.5748 251.466,29.9081 253.5,25.5 Z"/></g>
<g><path style="opacity:0.775" fill="#fefffe" d="M 264.5,21.5 C 268.24,21.2408 271.906,21.5741 275.5,22.5C 276.76,24.3529 276.76,26.1862 275.5,28C 278.164,30.3548 277.997,32.5215 275,34.5C 271.559,35.3822 268.059,35.7155 264.5,35.5C 264.5,30.8333 264.5,26.1667 264.5,21.5 Z M 268.5,24.5 C 270.103,24.3118 271.437,24.8118 272.5,26C 270.537,26.8442 269.204,26.3442 268.5,24.5 Z M 268.5,29.5 C 269.978,29.238 271.311,29.5713 272.5,30.5C 271.833,30.8333 271.167,31.1667 270.5,31.5C 269.287,31.2528 268.62,30.5862 268.5,29.5 Z"/></g>
<g><path style="opacity:0.775" fill="#fefffe" d="M 291.5,33.5 C 287.705,35.1428 283.705,35.8094 279.5,35.5C 279.5,30.8333 279.5,26.1667 279.5,21.5C 280.833,21.5 282.167,21.5 283.5,21.5C 283.5,22.8333 283.5,24.1667 283.5,25.5C 285.92,25.2924 288.253,25.6258 290.5,26.5C 291.491,24.6769 292.824,23.1769 294.5,22C 297.817,21.5017 301.15,21.335 304.5,21.5C 304.5,26.1667 304.5,30.8333 304.5,35.5C 303.167,35.5 301.833,35.5 300.5,35.5C 300.137,30.4848 298.803,30.3181 296.5,35C 295.667,35.1667 294.833,35.3333 294,35.5C 292.624,35.3158 291.791,34.6491 291.5,33.5 Z M 296.5,25.5 C 297.833,25.5 299.167,25.5 300.5,25.5C 300.719,26.675 300.386,27.675 299.5,28.5C 297.787,28.1207 296.787,27.1207 296.5,25.5 Z M 283.5,28.5 C 285.346,28.2222 286.68,28.8888 287.5,30.5C 286.311,31.4287 284.978,31.762 283.5,31.5C 283.5,30.5 283.5,29.5 283.5,28.5 Z M 291.5,33.5 C 291.709,32.0783 292.209,30.745 293,29.5C 293.773,31.3524 293.273,32.6857 291.5,33.5 Z"/></g>
</svg>
